<?xml version="1.0" encoding="utf-8"?>
<!-- Generator: Adobe Illustrator 22.0.1, SVG Export Plug-In . SVG Version: 6.00 Build 0)  -->
<svg version="1.1" id="Layer_1" xmlns="http://www.w3.org/2000/svg" xmlns:xlink="http://www.w3.org/1999/xlink" x="0px" y="0px"
	 viewBox="0 0 1920 1080" style="enable-background:new 0 0 1920 1080;" xml:space="preserve">
<style type="text/css">
	.st0{fill:#1E7BBE;}
	.st1{font-family:'Futura-Medium';}
	.st2{font-size:130px;}
</style>
<path class="st0" d="M648.7,473.1c-4.3-1.6-9.5-2.3-12.8-5.1c-4.8-4-8.3-3-13.3-0.6c-24.7,11.9-49.7,23.4-74.6,34.9
	c-4.7,2.2-8,4.4-8.5,10.7c-0.3,4.6-4.2,8.9-5.9,13.5c-1.2,3.2-2.7,7.1-1.9,10.2c9.4,39.5,19.3,79,28.8,118.5c1,4.4,2.7,6.8,7,8.4
	c11.9,4.4,17.9,14,17.6,26.7c-0.3,11-7.7,20.4-18.4,25c-3.7,1.6-7.6,4.7-9.4,8.2c-9.5,18.1-18.5,36.5-27.2,55
	c-1.4,3-1.7,7.3-0.8,10.5c5.9,19.5-8.7,38.3-29,36.3c-5.2-0.5-8.4,1-11.9,4.1c-14.3,12.9-28.7,25.6-42.8,38.7
	c-2.4,2.2-4.3,5.9-4.8,9.2c-2.8,18.9-17.6,30.4-34.5,26.3c-14.3-3.5-23.2-18.2-20.2-32.7c0.6-2.7,0-6.5-1.6-8.7
	c-14.7-19.9-29.6-39.6-44.7-59.1c-1.5-2-4.7-3.8-7.1-3.8c-13,0.4-23.3-5.8-28.4-17.8c-4.3-10.3-1.4-23,8-30.5
	c4.3-3.4,4.8-6.5,3.8-11.5c-9.8-52.8-19.2-105.6-29-158.3c-0.5-2.9-3-6.4-5.5-7.7c-7.3-3.7-12.4-8.9-15.4-16.6
	c-0.8-2-3.4-4.3-5.5-4.6c-29.3-5-58.6-9.7-87.9-14.2c-2.5-0.4-5.8,1-7.9,2.7c-9.4,7.2-19.3,9.3-30,3.7
	c-10.9-5.7-15.8-15.8-14.8-28.7c0.2-2.1-0.7-4.9-2.1-6.5c-18.4-20.7-37-41.3-55.7-61.7c-1.6-1.7-5.3-2.8-7.7-2.4
	c-15.2,2.7-28.9-4.5-33-17.7c-4.7-15.3,1.8-29,17.3-34.9c4.6-1.8,7.2-4.3,9.1-8.7c20.1-45.4,40.4-90.7,60.6-136
	c2.1-4.6,3-8.4-0.8-13.5c-8.8-11.7-5.3-28.7,6.4-37.3c11.8-8.6,28-6.3,37.8,4.9c2.1,2.4,6.1,4.5,9.2,4.5
	c58.5-1.1,116.9-2.5,175.4-3.9c2.2-0.1,4.5-0.2,6.7-0.1c8.9,0.4,16.6,0.2,23.2-8.7c7.4-9.8,21.8-10.1,32.1-3.7
	c11.2,7,16.2,18.8,12.2,30.9c-1.5,4.7-1.1,7.5,2.3,11.1c35.2,37.5,70.2,75.2,105.5,112.7c1.8,1.9,5.5,3.3,8.2,3.1
	c17.4-1.8,30.7,8.9,32.7,26.4c0.3,2.4,2,5.6,4,6.8c21.5,13.1,43.3,25.8,64.9,38.8c3.6,2.2,6.4,2.3,10.2,0.3
	c10.4-5.5,21.9-3.5,30.5,4.6c8.7,8.2,11,19.5,6.3,30.9C671,466.1,660.6,472.5,648.7,473.1z M492.6,493.8c-3.1-4.2-4.4-6.3-6-8.1
	c-32.6-39.1-65.3-78.1-98-117.1c-4.1-4.9-5.8-4.4-8.5,2.1c-19,45.5-38.1,91-57.1,136.6c-3,7.2-5.8,14.4-9.3,23.1
	C374,518,432.4,506.1,492.6,493.8z M294.5,519.6c0.7-0.1,1.4-0.2,2.1-0.2c2.4-5.9,4.9-11.9,7.3-17.8c18.8-45.1,37.7-90.1,56.5-135.2
	c3.8-9.1-0.3-15.4-10.2-16.1c-38.1-2.4-76.2-4.8-114.3-7.3c-10.7-0.7-15.8,6.7-11.5,16.5c18.2,41.8,36.4,83.6,54.6,125.4
	C284.3,496.5,289.4,508,294.5,519.6z M358.3,224.3c-0.2-0.6-0.5-1.3-0.7-1.9c-2.2,0-4.4,0-6.6,0c-27.7,0.5-55.4,1.1-83.1,1.6
	c-34.7,0.6-69.4,1.2-104.1,1.9c-9.2,0.2-13,7.2-8.2,14.9c11.1,17.7,22.5,35.3,33.4,53.3c4.7,7.7,9,15,19.7,13.4
	c1.1-0.2,2.4,0.6,3.5,1.2c4.2,2.7,7.6,1.5,11.6-1c33.4-20.9,67-41.6,100.5-62.3C335.7,238.3,347,231.3,358.3,224.3z M204,362
	c-1.5,3.8-2.5,5.7-3.1,7.7C189,410.4,177,451,165.4,491.8c-0.8,2.9,0.9,6.7,2.2,9.8c1.8,4.3,3.9,8.6,6.4,12.5
	c1.5,2.3,3.9,5.3,6.3,5.7c26.8,4.5,53.7,8.3,80.5,12.8c5.6,0.9,10.4,0.7,12.4-4.7c1.1-3,0-7.5-1.4-10.7
	c-13.5-31.4-27.2-62.6-40.9-93.9C222.3,403.6,213.6,383.8,204,362z M477.5,784c4.4,0.1,5.8-3.2,2.6-9.3
	c-20.9-39.7-41.9-79.4-63-119.1c-0.9-1.7-3.3-4.2-4.5-4c-1.9,0.5-4.1,2.5-5,4.4c-16.7,33-33.2,66-49.8,99c-3.6,7.3-3.1,8.2,4.9,9.6
	c25.6,4.4,51.1,8.8,76.7,13.1C451.7,780,464.1,781.9,477.5,784z M184.6,355.4c-0.7-0.5-1.3-0.9-2-1.4c-2.8,1.5-5.7,2.9-8.4,4.4
	c-30.8,17.5-61.6,35.1-92.5,52.6c-9,5.1-11.1,17-4.2,24.7c16.4,18.2,32.8,36.3,49.5,54.2c2.2,2.4,5.9,5,8.8,4.8
	c5.1-0.3,9.3-2.4,11.1-8.9c9.9-35.8,20.5-71.5,30.9-107.2C180,370.9,182.3,363.1,184.6,355.4z M339,747c1.8-2.1,2.9-3,3.5-4.2
	c15.7-31.7,31.5-63.4,47-95.2c1-2.1,0.4-6-0.9-8.1c-4.1-6.4-5.8-13-4.7-20.6c0.3-2-1.4-5.3-3.2-6.3c-22.4-13.5-45-26.7-67.6-39.9
	c-1.7-1-4-0.8-6.1-1.2c-0.2,1.9-0.8,3.9-0.5,5.7c1.7,10.1,3.8,20.1,5.6,30.1c8,44.4,16,88.8,24.1,133.1
	C336.5,742.4,337.8,744.1,339,747z M180.2,316.1c-1.3-2.1-2.8-4.4-4.3-6.7c-12.4-19.6-24.8-39.2-37.3-58.7
	c-3.5-5.5-7.4-5.4-10.4,0.3c-0.7,1.3-1.3,2.7-2,4c-18,40.3-35.9,80.5-53.8,120.8c-3,6.8-5.8,13.8-9.4,22.6c3.7-1.6,5.3-2.1,6.7-2.9
	c32.1-18.3,64-36.6,96.2-54.8c5.3-3,9.2-6,9.4-12.8C175.5,324.1,178.3,320.6,180.2,316.1z M542.5,664.3c-0.3-1.2-0.4-1.9-0.6-2.7
	c-9.9-39.9-19.6-79.9-29.8-119.7c-0.7-2.6-4.1-5.3-6.7-6.2c-1.9-0.6-5.6,1.2-7.2,3c-19.5,22.4-38.7,45-58,67.6
	c-5.5,6.4-5.3,8.4,2.1,12.4c11.2,6,22.5,11.8,33.8,17.7c19.7,10.3,39.3,20.6,58.9,31C539.3,669.6,541.6,668.4,542.5,664.3z
	 M490.5,516.5c-4.8,0-7.9-0.5-10.9,0.1c-51,10.3-102,20.8-153,31.4c-2.4,0.5-4.6,2.2-6.9,3.3c1.6,1.9,2.9,4.4,5,5.6
	c22.7,13.5,45.5,26.9,68.4,40.1c2.2,1.3,5.6,0.9,8.4,0.7c4.9-0.2,9.8-1.6,14.6-0.9c4,0.5,6.3,0.1,8.9-3
	C446.3,568.4,467.8,543.2,490.5,516.5z M237.5,321.7c2.2,1.2,2.8,1.8,3.4,1.9c36.3,2.5,72.6,5.1,109,7.3c1.9,0.1,4.2-2.6,5.9-4.3
	c4.1-4.2,8.2-8.4,11.9-13c2.1-2.6,4.6-5.9,4.7-8.9c0.5-20.2,0.4-40.4,0.4-60.6c0-1.6-0.5-3.1-0.9-5.7
	C326.8,266.3,282.7,293.6,237.5,321.7z M510,482.4c1.2-2.6,1.7-3.5,1.9-4.4c3.1-23.7,6.3-47.4,9-71.2c0.3-2.6-2-6.5-4.3-8.2
	c-6.3-4.7-10.1-10.7-12.2-18.2c-0.7-2.4-3.6-5.3-6-5.8c-24-5.7-48.1-11.1-72.2-16.4c-7.1-1.6-14.3-2.9-21.4-4.4
	c-0.3,0.6-0.6,1.1-0.9,1.7C439,397.3,474,439.3,510,482.4z M506.9,773.5c3.1-3,5.1-4.3,6.1-6.1c8.9-17.3,17.6-34.7,26.1-52.2
	c0.9-1.8-0.2-4.8-1.1-7c-2.3-5.7-4.9-11.3-7.7-16.8c-1.1-2.2-2.4-4.9-4.3-5.9c-28.6-15.2-57.3-30.3-86.1-45.2
	c-1.9-1-4.4-0.7-6.7-1.1c0.4,2,0.4,4.3,1.3,6.1c20.9,39.7,41.7,79.5,62.9,119C499.3,767.7,503.2,769.9,506.9,773.5z M497.3,354.1
	c0.3-0.6,0.7-1.2,1-1.8c-34.7-37.1-69.4-74.3-104.9-112.2c-0.9,2.5-1.6,3.6-1.6,4.7c-0.2,21-0.5,42-0.4,62.9c0,2.4,2.5,4.8,4.1,7
	c3.7,4.8,8.4,9.1,11.1,14.4c1.9,3.8,3.8,5.8,7.8,6.6c20,4.4,39.9,9,59.9,13.5C481.9,351,489.6,352.5,497.3,354.1z M357.1,783.7
	c-0.5,0.2-3,0.8-3.1,1.7c-0.3,1.6,0.5,3.8,1.5,5.2c14.3,18.9,28.7,37.8,43.4,56.5c1.5,1.9,5.2,2.6,8,3.1c6.2,1.1,12.5,2.1,18.8,2.6
	c2.7,0.2,6.4,0.2,8.3-1.3c13.9-11.8,27.6-23.9,41-36.2c1.7-1.6,3.2-5.3,2.5-7.3c-0.7-2.1-3.8-4.3-6.2-4.8
	c-13.5-2.6-27.1-4.7-40.6-7.1C406.6,792.1,382.5,788,357.1,783.7z M530.3,488.1c2.2-0.4,3.2-0.3,4-0.7
	c27.6-13.3,55.3-26.6,82.8-40.1c2.1-1,3.8-2.8,5.7-4.3c-1.7-1.9-3-4.4-5.1-5.7c-20.2-12.4-40.6-24.4-60.8-36.8
	c-9.3-5.7-15.4-2.9-16.8,7.9c-1.9,15.6-4,31.1-5.9,46.7C532.9,466,531.7,476.7,530.3,488.1z M530.9,394.5c10.6,0.2,19.9-8.7,20-19
	c0.1-9.7-9.4-19.1-19.3-19.1c-9.7,0-18.7,8.8-18.9,18.5C512.6,385.6,520.5,394.2,530.9,394.5z M429.9,623.6c0-10.3-8.3-19-18.1-19.1
	c-10.5-0.1-20,9-19.9,19.1c0.1,9.7,9.8,19.5,19.2,19.3C421,642.9,429.9,633.8,429.9,623.6z M311.3,548.7
	c0.1-10.1-8.9-19.3-18.8-19.3c-10.1,0-18.9,8.7-19.2,19.1c-0.3,9.7,8.9,19.2,18.9,19.4C301.7,568,311.2,558.5,311.3,548.7z
	 M399.8,337.6c-0.1-9.7-9-18.7-18.6-18.8c-10.2,0-19.7,9.6-19.6,19.7c0.1,9.8,9.6,18.8,19.7,18.5
	C391.6,356.8,399.9,348.1,399.8,337.6z M557.8,708.5c10.3,0,19.1-8.7,19.1-18.9c0-10.3-8.4-19.2-18.7-19.4c-9.7-0.3-19.1,9-19.4,19
	C538.5,698.9,548,708.5,557.8,708.5z M202.1,315.4c-10.9,0-19.4,8.6-19.2,19.4c0.1,9.7,9,18.6,18.7,18.7c10,0.2,19.6-9.7,19.4-19.8
	C220.8,324,212,315.4,202.1,315.4z M502.8,817.5c10,0.1,19.6-8.8,19.8-18.6c0.2-10-8.6-19.4-18.6-19.7c-10.2-0.4-19.6,8.9-19.6,19.4
	C484.3,808.3,493.1,817.4,502.8,817.5z M394.1,877.1c-0.1,10.4,8.5,19.4,18.5,19.5c9.5,0.1,19.6-9.6,19.6-18.9
	c0-10.1-8.7-19-19-19.1C402.7,858.4,394.2,866.5,394.1,877.1z M28.5,419.2c0.2,10.2,9.2,19,19.3,18.8c10-0.2,19-9.5,18.8-19.4
	c-0.1-10-9.4-19-19.4-18.9C37.2,399.8,28.3,409.1,28.5,419.2z M631.3,445.2c0,9.7,8.9,19.1,18.2,19.3c10,0.2,20-9.5,20-19.3
	c0-10.1-9-18.9-19.2-18.8C639.8,426.3,631.3,434.8,631.3,445.2z M513,528.2c10-0.1,19-9.3,18.8-19.4c-0.2-10.3-9.1-19.1-19.2-19
	c-9.8,0.1-19,9.5-18.9,19.5C493.7,519.4,502.8,528.3,513,528.2z M149.3,219.6c0.1-9.9-8.5-18.9-18.4-19.1
	c-9.9-0.3-19.5,8.9-19.7,18.8c-0.2,10.1,8.9,19.3,18.9,19.3C140.6,238.6,149.2,230.1,149.3,219.6z M384.3,195.3
	c-10.5,0.1-18.6,8.4-18.5,19.2c0.1,10.5,8.4,18.5,19.3,18.4c9.9-0.1,19.2-9.5,18.9-19.3C403.8,203.4,394.9,195.2,384.3,195.3z
	 M147.5,501.5c-10.7-0.2-18.9,8-18.9,18.8c-0.1,10.4,8.6,19.3,18.8,19.3c9.7,0,18.6-9,18.7-18.8
	C166.2,509.9,158.3,501.6,147.5,501.5z M348.9,772.7c0.3-10.6-7.9-19.2-18.5-19.3c-10.3-0.2-18.9,7.8-19.4,17.8
	c-0.5,9.9,8.6,20,18.3,20.2C339.6,791.6,348.6,783,348.9,772.7z"/>
<text transform="matrix(1 0 0 1 686.1582 331.0527)"><tspan x="0" y="0" class="st1 st2">AFRICAN </tspan><tspan x="0" y="156" class="st1 st2">INTERNATIONAL </tspan><tspan x="0" y="312" class="st1 st2">ECONOMIC LAW </tspan><tspan x="0" y="468" class="st1 st2">NETWORK (AfIELN)</tspan></text>
</svg>
